<svg xmlns="http://www.w3.org/2000/svg" version="1.1" xmlns:xlink="http://www.w3.org/1999/xlink" width="55" height="54"><svg xmlns="http://www.w3.org/2000/svg" version="1.1" xmlns:xlink="http://www.w3.org/1999/xlink" width="55" height="54"><svg width="55" height="54" viewBox="0 0 55 54" fill="none" xmlns="http://www.w3.org/2000/svg">
<g clip-path="url(#clip0_228_13)">
<path d="M36.1603 44.2181C30.6459 44.9892 24.5379 44.2389 19.7696 41.2679L36.3315 29.8997C36.3315 29.8997 37.5239 28.4459 37.3205 27.1218C37.1036 25.7146 36.7508 24.3064 36.1997 22.9304C36.1146 22.7187 36.0254 22.5112 35.933 22.3047L5.59229 43.0933C11.5643 50.2244 21.0574 54.2124 29.1723 52.9163C42.8764 50.7267 53.0969 38.8417 51.6316 24.899C52.2376 34.4366 45.616 42.8961 36.1603 44.2181Z" fill="url(#paint0_linear_228_13)"></path>
<path d="M3.51576 40.2603L13.1779 33.6563C12.5812 32.2948 12.1195 30.788 11.8206 29.1277C9.53555 16.4416 20.3838 8.57468 30.4113 7.17272C35.9434 6.39962 41.2886 8.23119 45.2361 11.747L46.1379 11.1306C40.4937 3.79911 31.2985 -0.395341 21.7069 0.945388C8.0018 5.39927 0.790715 16.2164 0.219971 30.8181C0.717037 34.0205 1.48598 36.8369 3.04463 39.4934C3.19718 39.7529 3.35491 40.0081 3.51576 40.2613V40.2603Z" fill="url(#paint1_linear_228_13)"></path>
<path d="M12.8095 11.9482C19.1572 9.4048 25.9968 10.2972 31.1366 13.7373L15.7493 24.1642C13.7434 25.7551 13.6978 27.1643 13.8368 27.9374C14.1212 29.5157 14.5518 30.9551 15.107 32.2636L48.84 9.28339C41.5387 0.760622 29.0238 -2.49884 17.6297 2.06607C4.77757 7.21626 -2.2322 20.5509 0.638123 33.1363C-0.940244 24.4735 3.98683 15.4837 12.8085 11.9482H12.8095Z" fill="#6BD425"></path>
<path d="M50.9373 12.1029L37.5601 21.2452C37.6887 21.5233 37.8122 21.8056 37.9274 22.093C41.7815 31.7106 36.7839 42.7612 26.7647 46.7761C19.2859 49.773 11.1274 47.9975 5.86614 42.9065L5.41992 43.2116C12.5926 52.4026 25.5817 56.0543 37.3702 51.3307C51.5423 45.6523 58.6112 30.0201 53.1601 16.4167C52.5457 14.885 51.7986 13.4457 50.9373 12.1029Z" fill="#6BD425"></path>
</g>
<defs>
<linearGradient id="paint0_linear_228_13" x1="26.5355" y1="26.0716" x2="39.1468" y2="74.1988" gradientUnits="userSpaceOnUse">
<stop stop-color="#129C44"></stop>
<stop offset="1" stop-color="#67BC45"></stop>
</linearGradient>
<linearGradient id="paint1_linear_228_13" x1="0.219971" y1="20.4794" x2="46.1379" y2="20.4794" gradientUnits="userSpaceOnUse">
<stop stop-color="#29A545"></stop>
<stop offset="1" stop-color="#6BD425"></stop>
</linearGradient>
<clipPath id="clip0_228_13">
<rect width="55" height="53.3978" fill="white"></rect>
</clipPath>
</defs>
</svg></svg><style>@media (prefers-color-scheme: light) { :root { filter: none; } }
@media (prefers-color-scheme: dark) { :root { filter: none; } }
</style></svg>