<svg width="221" height="55" viewBox="0 0 221 55" fill="none" xmlns="http://www.w3.org/2000/svg">
<path d="M36.9498 22.9462C37.4647 25.4066 35.8475 27.4011 33.3376 27.4011C30.8277 27.4011 28.3756 25.4066 27.8606 22.9462C27.3456 20.4859 28.9628 18.4914 31.4727 18.4914C33.9826 18.4914 36.4348 20.4859 36.9498 22.9462Z" fill="#383027" fill-opacity="0.87"/>
<path fill-rule="evenodd" clip-rule="evenodd" d="M34.5433 37.9311C42.4797 37.9311 47.565 31.4891 45.9017 23.5424C44.2384 15.5958 36.4563 9.15381 28.5199 9.15381C20.5835 9.15381 15.4982 15.5958 17.1615 23.5424C18.8248 31.4891 26.6069 37.9311 34.5433 37.9311ZM41.613 22.9461C42.6564 27.9312 39.3796 31.9724 34.2941 31.9724C29.2086 31.9724 24.2401 27.9312 23.1967 22.9461C22.1532 17.961 25.43 13.9198 30.5155 13.9198C35.601 13.9198 40.5695 17.961 41.613 22.9461Z" fill="#383027" fill-opacity="0.87"/>
<path fill-rule="evenodd" clip-rule="evenodd" d="M55.2231 25.3664C56.3052 30.5362 55.8046 35.3449 54.056 39.3548L54.1486 39.3534C52.6495 43.4626 47.663 52.0603 35.9227 54.5258C35.476 54.6196 35.0299 54.6939 34.5849 54.7498C33.4648 54.9147 32.3029 55 31.1036 55C17.1998 55 3.52915 43.5369 0.569382 29.3965C-0.840441 22.661 0.43422 16.533 3.65849 11.9619C5.15611 9.0746 13.0132 2.07214 19.3538 0.711441C19.5254 0.674609 19.6905 0.645741 19.8492 0.624511C21.525 0.215768 23.3125 0 25.1942 0C38.8464 0 52.2908 11.3569 55.2231 25.3664ZM50.4438 24.181C52.7459 35.1791 45.9198 44.0949 35.1974 44.0949C24.475 44.0949 13.9166 35.1791 11.6146 24.181C9.31254 13.1829 16.1386 4.26723 26.861 4.26723C37.5834 4.26723 48.1418 13.1829 50.4438 24.181Z" fill="#383027" fill-opacity="0.87"/>
<path d="M92.0119 40.104C92.0119 40.4204 92.268 40.6769 92.584 40.6769H96.9323C97.2483 40.6769 97.5044 40.4204 97.5044 40.104V19.1873H92.584C92.268 19.1873 92.0119 19.4438 92.0119 19.7602V40.104Z" fill="#383027" fill-opacity="0.87"/>
<path d="M92.1888 15.7838C92.7157 16.3379 93.5191 16.6149 94.5992 16.6149C95.6792 16.6149 96.4695 16.3379 96.97 15.7838C97.4705 15.2034 97.7208 14.491 97.7208 13.6467C97.7208 12.7497 97.4705 12.0241 96.97 11.4701C96.4695 10.916 95.6792 10.639 94.5992 10.639C93.5191 10.639 92.7157 10.916 92.1888 11.4701C91.6883 12.0241 91.438 12.7497 91.438 13.6467C91.438 14.491 91.6883 15.2034 92.1888 15.7838Z" fill="#383027" fill-opacity="0.87"/>
<path fill-rule="evenodd" clip-rule="evenodd" d="M83.354 30.6247C81.6681 31.4162 79.6134 31.812 77.1899 31.812H72.8433V40.104C72.8433 40.4204 72.5872 40.6769 72.2713 40.6769H67.8044C67.4885 40.6769 67.2323 40.4204 67.2323 40.104V12.1617C67.2323 11.8453 67.4885 11.5888 67.8044 11.5888H72.2713C72.333 11.5888 72.3925 11.5986 72.4482 11.6167C72.5039 11.5986 72.5633 11.5888 72.6251 11.5888H77.1899C79.6134 11.5888 81.6681 11.9845 83.354 12.7761C85.0663 13.5676 86.3703 14.7021 87.2659 16.1796C88.1616 17.6307 88.6094 19.3588 88.6094 21.364V21.9972C88.6094 24.0024 88.1616 25.7437 87.2659 27.2212C86.3703 28.6723 85.0663 29.8068 83.354 30.6247ZM80.509 17.1294C79.7451 16.6809 78.7968 16.4566 77.664 16.4566H72.8433V26.9442H77.664C78.7968 26.9442 79.7451 26.7199 80.509 26.2714C81.2993 25.8228 81.892 25.2028 82.2872 24.4113C82.7086 23.6198 82.9194 22.7096 82.9194 21.6806C82.9194 20.6516 82.7086 19.7414 82.2872 18.9499C81.892 18.1583 81.2993 17.5515 80.509 17.1294Z" fill="#383027" fill-opacity="0.87"/>
<path d="M102.431 40.6769C102.115 40.6769 101.859 40.4204 101.859 40.104V19.7602C101.859 19.4438 102.115 19.1873 102.431 19.1873H105.633C105.949 19.1873 106.205 19.4438 106.205 19.7602V24.4829C106.332 23.9318 106.491 23.4198 106.679 22.947C107.259 21.4695 108.115 20.3614 109.248 19.6227C110.407 18.8839 111.842 18.5145 113.555 18.5145H113.792C116.347 18.5145 118.283 19.3456 119.6 21.0078C120.918 22.6436 121.576 25.0973 121.576 28.3689V40.104C121.576 40.4204 121.32 40.6769 121.004 40.6769H116.656C116.34 40.6769 116.084 40.4204 116.084 40.104V27.894C116.084 26.5748 115.702 25.5062 114.938 24.6883C114.2 23.8704 113.173 23.4615 111.856 23.4615C110.512 23.4615 109.419 23.8836 108.576 24.7279C107.759 25.5458 107.351 26.6539 107.351 28.0523V40.104C107.351 40.4204 107.095 40.6769 106.779 40.6769H102.431Z" fill="#383027" fill-opacity="0.87"/>
<path fill-rule="evenodd" clip-rule="evenodd" d="M142.062 30.6247C140.376 31.4162 138.321 31.812 135.897 31.812H131.551V40.104C131.551 40.4204 131.295 40.6769 130.979 40.6769H126.512C126.196 40.6769 125.94 40.4204 125.94 40.104V12.1617C125.94 11.8453 126.196 11.5888 126.512 11.5888H130.979C131.041 11.5888 131.1 11.5986 131.156 11.6167C131.211 11.5986 131.271 11.5888 131.333 11.5888H135.897C138.321 11.5888 140.376 11.9845 142.062 12.7761C143.774 13.5676 145.078 14.7021 145.973 16.1796C146.869 17.6307 147.317 19.3588 147.317 21.364V21.9972C147.317 24.0024 146.869 25.7437 145.973 27.2212C145.078 28.6723 143.774 29.8068 142.062 30.6247ZM139.217 17.1294C138.453 16.6809 137.504 16.4566 136.372 16.4566H131.551V26.9442H136.372C137.504 26.9442 138.453 26.7199 139.217 26.2714C140.007 25.8228 140.6 25.2028 140.995 24.4113C141.416 23.6198 141.627 22.7096 141.627 21.6806C141.627 20.6516 141.416 19.7414 140.995 18.9499C140.6 18.1583 140.007 17.5515 139.217 17.1294Z" fill="#383027" fill-opacity="0.87"/>
<path fill-rule="evenodd" clip-rule="evenodd" d="M159.542 41.4288C157.646 41.4288 155.973 41.1254 154.524 40.5186C153.075 39.9118 151.85 39.0939 150.849 38.0649C149.848 37.0096 149.084 35.8223 148.557 34.5031C148.057 33.1839 147.807 31.812 147.807 30.3872V29.5561C147.807 28.0787 148.07 26.6803 148.597 25.3611C149.15 24.0156 149.927 22.8283 150.928 21.7993C151.956 20.744 153.194 19.9261 154.642 19.3456C156.091 18.7388 157.725 18.4354 159.542 18.4354C161.36 18.4354 162.993 18.7388 164.442 19.3456C165.891 19.9261 167.116 20.744 168.117 21.7993C169.144 22.8283 169.921 24.0156 170.448 25.3611C170.975 26.6803 171.238 28.0787 171.238 29.5561V30.3872C171.238 31.812 170.975 33.1839 170.448 34.5031C169.948 35.8223 169.197 37.0096 168.196 38.0649C167.195 39.0939 165.97 39.9118 164.521 40.5186C163.072 41.1254 161.413 41.4288 159.542 41.4288ZM159.542 36.7193C160.886 36.7193 162.018 36.4291 162.94 35.8487C163.862 35.2419 164.56 34.4371 165.035 33.4346C165.509 32.4056 165.746 31.2447 165.746 29.9519C165.746 28.6327 165.496 27.4718 164.995 26.4692C164.521 25.4403 163.81 24.6356 162.861 24.0551C161.939 23.4483 160.833 23.1449 159.542 23.1449C158.251 23.1449 157.132 23.4483 156.184 24.0551C155.262 24.6356 154.55 25.4403 154.05 26.4692C153.549 27.4718 153.299 28.6327 153.299 29.9519C153.299 31.2447 153.536 32.4056 154.01 33.4346C154.511 34.4371 155.222 35.2419 156.144 35.8487C157.066 36.4291 158.199 36.7193 159.542 36.7193Z" fill="#383027" fill-opacity="0.87"/>
<path d="M175.099 40.104C175.099 40.4204 175.355 40.6769 175.671 40.6769H180.02C180.336 40.6769 180.592 40.4204 180.592 40.104V19.1873H175.671C175.355 19.1873 175.099 19.4438 175.099 19.7602V40.104Z" fill="#383027" fill-opacity="0.87"/>
<path d="M175.276 15.7838C175.803 16.3379 176.606 16.6149 177.687 16.6149C178.767 16.6149 179.557 16.3379 180.057 15.7838C180.558 15.2034 180.808 14.491 180.808 13.6467C180.808 12.7497 180.558 12.0241 180.057 11.4701C179.557 10.916 178.767 10.639 177.687 10.639C176.606 10.639 175.803 10.916 175.276 11.4701C174.776 12.0241 174.525 12.7497 174.525 13.6467C174.525 14.491 174.776 15.2034 175.276 15.7838Z" fill="#383027" fill-opacity="0.87"/>
<path d="M185.518 40.6769C185.202 40.6769 184.946 40.4204 184.946 40.104V19.7602C184.946 19.4438 185.202 19.1873 185.518 19.1873H188.72C189.036 19.1873 189.293 19.4438 189.293 19.7602V24.4829C189.42 23.9317 189.578 23.4198 189.767 22.947C190.346 21.4695 191.202 20.3614 192.335 19.6227C193.494 18.8839 194.93 18.5145 196.642 18.5145H196.879C199.434 18.5145 201.371 19.3456 202.688 21.0078C204.005 22.6436 204.663 25.0973 204.663 28.3689V40.104C204.663 40.4204 204.407 40.6769 204.091 40.6769H199.743C199.427 40.6769 199.171 40.4204 199.171 40.104V27.894C199.171 26.5748 198.789 25.5062 198.025 24.6883C197.288 23.8704 196.26 23.4615 194.943 23.4615C193.6 23.4615 192.506 23.8836 191.663 24.7279C190.847 25.5458 190.438 26.6539 190.438 28.0523V40.104C190.438 40.4204 190.182 40.6769 189.866 40.6769H185.518Z" fill="#383027" fill-opacity="0.87"/>
<path d="M213.018 40.202C214.309 40.7033 215.942 40.9539 217.918 40.9539H220.428C220.744 40.9539 221 40.6974 221 40.381V36.8174C221 36.5009 220.744 36.2444 220.428 36.2444H217.641C216.588 36.2444 215.771 35.9674 215.191 35.4133C214.638 34.8329 214.362 34.015 214.362 32.9597L214.381 23.224H220.428C220.744 23.224 221 22.9675 221 22.6511V19.7602C221 19.4438 220.744 19.1873 220.428 19.1873H214.389L214.4 13.7063C214.401 13.3894 214.144 13.1322 213.828 13.1322H209.835C209.52 13.1322 209.264 13.388 209.263 13.704L209.252 19.1873H206.399C206.083 19.1873 205.827 19.4438 205.827 19.7602V22.6511C205.827 22.9675 206.083 23.224 206.399 23.224H209.244L209.225 32.6035C209.225 34.6878 209.541 36.35 210.173 37.59C210.805 38.8037 211.754 39.6743 213.018 40.202Z" fill="#383027" fill-opacity="0.87"/>
</svg>
