<svg width="228" height="52" viewBox="0 0 228 52" fill="none" xmlns="http://www.w3.org/2000/svg">
<path d="M67.5254 13.8576C69.6975 13.8576 71.5777 14.2154 73.1659 14.9311C74.7774 15.6469 76.0153 16.6627 76.8794 17.9787C77.7436 19.2947 78.1757 20.8531 78.1757 22.6539C78.1757 24.4316 77.7436 25.99 76.8794 27.3291C76.0153 28.6451 74.7774 29.6609 73.1659 30.3766C71.5777 31.0693 69.6975 31.4156 67.5254 31.4156H62.5857V38.0994H56.9102V13.8576H67.5254ZM67.2101 26.8443C68.9151 26.8443 70.2114 26.4864 71.0989 25.7707C71.9864 25.0319 72.4302 23.993 72.4302 22.6539C72.4302 21.2917 71.9864 20.2528 71.0989 19.5371C70.2114 18.7983 68.9151 18.4289 67.2101 18.4289H62.5857V26.8443H67.2101Z" fill="#383027" fill-opacity="0.87"/>
<path d="M85.3105 21.9266C85.9645 21.0262 86.8403 20.3452 87.938 19.8834C89.0591 19.4217 90.3437 19.1908 91.7917 19.1908V24.1777C91.1845 24.1315 90.7758 24.1084 90.5656 24.1084C89.0007 24.1084 87.7746 24.5471 86.887 25.4244C85.9995 26.2786 85.5558 27.5715 85.5558 29.3031V38.0994H80.0905V19.4678H85.3105V21.9266Z" fill="#383027" fill-opacity="0.87"/>
<path d="M102.087 38.3764C100.102 38.3764 98.3153 37.9724 96.7271 37.1644C95.1623 36.3332 93.9361 35.1904 93.0486 33.7359C92.1611 32.2814 91.7173 30.6306 91.7173 28.7836C91.7173 26.9366 92.1611 25.2859 93.0486 23.8314C93.9361 22.3768 95.1623 21.2456 96.7271 20.4375C98.3153 19.6064 100.102 19.1908 102.087 19.1908C104.073 19.1908 105.848 19.6064 107.412 20.4375C108.977 21.2456 110.203 22.3768 111.091 23.8314C111.978 25.2859 112.422 26.9366 112.422 28.7836C112.422 30.6306 111.978 32.2814 111.091 33.7359C110.203 35.1904 108.977 36.3332 107.412 37.1644C105.848 37.9724 104.073 38.3764 102.087 38.3764ZM102.087 33.9437C103.489 33.9437 104.633 33.4819 105.521 32.5584C106.431 31.6118 106.887 30.3536 106.887 28.7836C106.887 27.2137 106.431 25.9669 105.521 25.0434C104.633 24.0969 103.489 23.6236 102.087 23.6236C100.686 23.6236 99.5298 24.0969 98.6189 25.0434C97.7081 25.9669 97.2526 27.2137 97.2526 28.7836C97.2526 30.3536 97.7081 31.6118 98.6189 32.5584C99.5298 33.4819 100.686 33.9437 102.087 33.9437Z" fill="#383027" fill-opacity="0.87"/>
<path d="M137.201 13.8576V38.0994H132.541L120.314 23.3812V38.0994H114.709V13.8576H119.403L131.595 28.5758V13.8576H137.201Z" fill="#383027" fill-opacity="0.87"/>
<path d="M148.468 19.1908C151.388 19.1908 153.63 19.8834 155.195 21.2686C156.759 22.6308 157.542 24.6971 157.542 27.4676V38.0994H152.427V35.7791C151.399 37.5107 149.484 38.3764 146.681 38.3764C145.233 38.3764 143.972 38.134 142.898 37.6492C141.847 37.1644 141.041 36.4948 140.48 35.6406C139.92 34.7864 139.64 33.8167 139.64 32.7316C139.64 31 140.294 29.6378 141.601 28.6451C142.933 27.6523 144.976 27.156 147.732 27.156H152.077C152.077 25.9785 151.715 25.0781 150.99 24.4547C150.266 23.8083 149.18 23.485 147.732 23.485C146.728 23.485 145.735 23.6467 144.754 23.9699C143.797 24.27 142.979 24.6856 142.302 25.2166L140.34 21.4418C141.368 20.7261 142.594 20.172 144.019 19.7795C145.467 19.387 146.95 19.1908 148.468 19.1908ZM148.048 34.7402C148.982 34.7402 149.811 34.5324 150.535 34.1168C151.259 33.6782 151.773 33.0432 152.077 32.2121V30.3074H148.328C146.086 30.3074 144.965 31.0346 144.965 32.4892C144.965 33.1818 145.233 33.7359 145.77 34.1514C146.331 34.5439 147.09 34.7402 148.048 34.7402Z" fill="#383027" fill-opacity="0.87"/>
<path d="M172.893 37.199C172.356 37.5915 171.69 37.8916 170.896 38.0994C170.125 38.2841 169.308 38.3764 168.444 38.3764C166.202 38.3764 164.462 37.8108 163.224 36.6795C162.009 35.5482 161.402 33.8859 161.402 31.6926V24.0391H158.494V19.8834H161.402V15.3467H166.867V19.8834H171.562V24.0391H166.867V31.6234C166.867 32.4083 167.066 33.0202 167.463 33.4588C167.883 33.8744 168.467 34.0822 169.215 34.0822C170.079 34.0822 170.814 33.8513 171.422 33.3896L172.893 37.199Z" fill="#383027" fill-opacity="0.87"/>
<path d="M193.198 19.4678V38.0994H188.013V35.883C187.289 36.6911 186.424 37.3144 185.42 37.7531C184.416 38.1687 183.33 38.3764 182.162 38.3764C179.686 38.3764 177.724 37.6723 176.276 36.2639C174.828 34.8556 174.104 32.7662 174.104 29.9957V19.4678H179.569V29.1992C179.569 32.2006 180.842 33.7012 183.388 33.7012C184.696 33.7012 185.747 33.2857 186.541 32.4545C187.335 31.6003 187.732 30.342 187.732 28.6797V19.4678H193.198Z" fill="#383027" fill-opacity="0.87"/>
<path d="M201.729 21.9266C202.383 21.0262 203.259 20.3452 204.357 19.8834C205.478 19.4217 206.762 19.1908 208.21 19.1908V24.1777C207.603 24.1315 207.194 24.1084 206.984 24.1084C205.419 24.1084 204.193 24.5471 203.306 25.4244C202.418 26.2786 201.974 27.5715 201.974 29.3031V38.0994H196.509V19.4678H201.729V21.9266Z" fill="#383027" fill-opacity="0.87"/>
<path d="M228 28.8529C228 28.9221 227.965 29.407 227.895 30.3074H213.636C213.893 31.4618 214.5 32.3737 215.458 33.0432C216.416 33.7128 217.607 34.0476 219.031 34.0476C220.012 34.0476 220.876 33.909 221.624 33.632C222.395 33.3318 223.107 32.8701 223.761 32.2467L226.669 35.3635C224.894 37.3721 222.301 38.3764 218.891 38.3764C216.766 38.3764 214.886 37.9724 213.251 37.1644C211.616 36.3332 210.355 35.1904 209.467 33.7359C208.58 32.2814 208.136 30.6306 208.136 28.7836C208.136 26.9597 208.568 25.3205 209.432 23.866C210.32 22.3884 211.522 21.2456 213.041 20.4375C214.582 19.6064 216.299 19.1908 218.191 19.1908C220.036 19.1908 221.706 19.5833 223.2 20.3682C224.695 21.1532 225.863 22.2845 226.704 23.7621C227.568 25.2166 228 26.9135 228 28.8529ZM218.226 23.2773C216.988 23.2773 215.948 23.6236 215.108 24.3162C214.267 25.0088 213.753 25.9554 213.566 27.156H222.85C222.663 25.9785 222.149 25.0434 221.309 24.3508C220.468 23.6351 219.44 23.2773 218.226 23.2773Z" fill="#383027" fill-opacity="0.87"/>
<path fill-rule="evenodd" clip-rule="evenodd" d="M25.7859 0.357125C24.9532 -0.119042 23.9265 -0.119042 23.0938 0.357125C17.1791 3.73926 13.19 10.0673 13.19 17.3194C13.19 18.353 13.271 19.3679 13.4271 20.3581C9.35551 18.9912 4.94691 19.4886 1.34604 21.5397C0.512521 22.0145 -0.000803843 22.8934 9.44918e-07 23.8444C0.00424493 28.8612 2.64069 33.7507 7.3624 36.4454C9.67884 37.7674 12.2071 38.3957 14.7011 38.397C14.3216 39.4597 14.1152 40.6032 14.1152 41.7943C14.1152 47.4308 18.7375 52 24.4395 52C30.1414 52 34.7637 47.4308 34.7637 41.7943C34.7637 40.6006 34.5564 39.4547 34.1754 38.39C36.5205 38.3168 38.8827 37.6871 41.058 36.4456C45.7797 33.7509 48.4162 28.8614 48.4204 23.8446C48.4212 22.8936 47.9079 22.0147 47.0744 21.5399C43.6153 19.5696 39.411 19.0331 35.476 20.2054C35.6168 19.2637 35.6897 18.3 35.6897 17.3194C35.6897 10.0673 31.7005 3.73926 25.7859 0.357125ZM18.5663 17.3194C18.5663 12.6101 20.8731 8.4308 24.4398 5.82939C28.0065 8.4308 30.3133 12.6101 30.3133 17.3194C30.3133 22.0288 28.0065 26.208 24.4398 28.8095C20.8731 26.208 18.5663 22.0288 18.5663 17.3194ZM35.0417 26.1448C37.5242 24.728 40.3927 24.5631 42.8984 25.4596C42.431 28.053 40.8524 30.4262 38.3698 31.8431C35.8873 33.2599 33.0188 33.4247 30.5131 32.5282C30.9805 29.9348 32.5592 27.5616 35.0417 26.1448ZM5.52198 25.4594C8.02774 24.5629 10.8962 24.7277 13.3787 26.1446C15.8613 27.5614 17.4399 29.9346 17.9073 32.528C15.4016 33.4245 12.5331 33.2597 10.0506 31.8428C7.56805 30.426 5.98943 28.0528 5.52198 25.4594ZM19.4916 41.7943C19.4916 39.0931 21.7068 36.9033 24.4395 36.9033C27.1721 36.9033 29.3874 39.0931 29.3874 41.7943C29.3874 44.4956 27.1721 46.6854 24.4395 46.6854C21.7068 46.6854 19.4916 44.4956 19.4916 41.7943Z" fill="#383027" fill-opacity="0.87"/>
</svg>
