<svg width="174" height="56" viewBox="0 0 174 56" fill="none" xmlns="http://www.w3.org/2000/svg">
<path d="M0 4.01431C2.01816 4.92909 3.92336 6.83948 4.94728 9.81865C7.70409 17.8398 16.514 23.3056 24.1484 19.1519C27.1732 17.5063 32.3916 19.2853 34.3584 25.0079C37.1152 33.029 45.9251 38.4948 53.5596 34.3412C54.3392 33.917 55.2646 33.7204 56.2424 33.7601V39.4665C53.3056 38.541 50.1068 38.6809 47.0914 40.3215C44.0666 41.9672 38.8482 40.1881 36.8814 34.4655C34.1245 26.4444 25.3147 20.9786 17.6802 25.1322C14.6555 26.7779 9.43703 24.9989 7.47023 19.2763C6.13155 15.3813 3.36559 12.0889 0 10.2078V4.01431Z" fill="#383027" fill-opacity="0.87"/>
<path d="M5.3739 0C7.8531 1.93109 9.84178 4.6649 10.9143 7.78547C12.8811 13.508 18.0995 15.2871 21.1243 13.6414C28.7587 9.48774 37.5686 14.9536 40.3254 22.9747C42.2922 28.6973 47.5107 30.4763 50.5354 28.8306C52.4027 27.8147 54.3403 27.3742 56.2424 27.4059V0H5.3739Z" fill="#383027" fill-opacity="0.87"/>
<path d="M0 18.3773V24.4266C1.71851 26.1811 3.08802 28.3551 3.91407 30.7586C5.88087 36.4811 11.0993 38.2602 14.1241 36.6145C21.7585 32.4608 30.5684 37.9266 33.3252 45.9478C35.292 51.6704 40.5104 53.4494 43.5352 51.8037C47.8276 49.4684 52.4916 50.1739 56.2424 52.6648V46.342C54.1446 45.06 51.7928 44.9195 50.1155 45.832C42.4811 49.9857 33.6712 44.5199 30.9143 36.4987C28.9475 30.7762 23.7291 28.9971 20.7044 30.6428C13.0699 34.7965 4.26002 29.3306 1.50321 21.3095C1.11492 20.1797 0.599877 19.2036 0 18.3773Z" fill="#383027" fill-opacity="0.87"/>
<path d="M33.2061 56C30.5841 54.059 28.4747 51.2295 27.3582 47.981C25.3914 42.2584 20.1729 40.4794 17.1482 42.125C10.8977 45.5257 3.85934 42.4785 0 36.8599V56H33.2061Z" fill="#383027" fill-opacity="0.87"/>
<path fill-rule="evenodd" clip-rule="evenodd" d="M80.2791 11.9311C83.1547 11.9311 85.6669 12.3506 87.8157 13.1892C89.9652 14.0278 91.7513 15.1844 93.1746 16.6592C94.5973 18.1052 95.6579 19.768 96.3545 21.6476C97.0806 23.4986 97.444 25.4214 97.444 27.4169V28.3711C97.444 30.2798 97.0806 32.1594 96.3545 34.0104C95.6579 35.8612 94.5973 37.5384 93.1746 39.0421C91.7513 40.5457 89.9652 41.7461 87.8157 42.6424C85.6669 43.5389 83.1547 43.9872 80.2791 43.9872H68.7779V11.9311H80.2791ZM80.6714 38.2614H74.9639V17.6569H80.6714C82.3269 17.6569 83.7934 17.8884 85.0713 18.3511C86.3783 18.8138 87.4819 19.4933 88.3824 20.3898C89.2828 21.2864 89.9652 22.3706 90.4296 23.6431C90.9235 24.8867 91.1705 26.3036 91.1705 27.894C91.1705 29.4268 90.9235 30.8293 90.4296 32.1017C89.9652 33.3451 89.2828 34.4296 88.3824 35.355C87.4819 36.2803 86.3783 37.0033 85.0713 37.524C83.7934 38.0155 82.3269 38.2614 80.6714 38.2614Z" fill="#383027" fill-opacity="0.87"/>
<path d="M102.025 41.8617C103.535 43.6545 105.656 44.5511 108.385 44.5511H108.647C110.477 44.5511 112.002 44.1463 113.221 43.3366C114.441 42.5268 115.356 41.3267 115.966 39.7362C116.134 39.2965 116.28 38.8271 116.402 38.3279V43.8137H121.194V20.2163H115.138V34.1404C115.138 35.6732 114.688 36.8878 113.788 37.7843C112.916 38.6805 111.784 39.1288 110.389 39.1288C108.996 39.1288 107.892 38.7097 107.078 37.8708C106.265 37.0033 105.859 35.8465 105.859 34.4008V20.2163H99.8035V33.8801C99.8035 37.4081 100.544 40.0686 102.025 41.8617Z" fill="#383027" fill-opacity="0.87"/>
<path d="M125.971 43.8137V20.2595H130.764V26.065C130.904 25.4604 131.078 24.899 131.287 24.3805C131.926 22.7612 132.869 21.5464 134.119 20.7369C135.396 19.9271 136.979 19.5221 138.867 19.5221H139.128C141.946 19.5221 144.081 20.4331 145.533 22.255C146.984 24.0478 147.711 26.7374 147.711 30.3234V43.8137H141.655V29.8027C141.655 28.3567 141.234 27.1857 140.392 26.2892C139.578 25.3926 138.446 24.9443 136.993 24.9443C135.512 24.9443 134.307 25.407 133.378 26.3324C132.477 27.229 132.028 28.4435 132.028 29.9763V43.8137H125.971Z" fill="#383027" fill-opacity="0.87"/>
<path fill-rule="evenodd" clip-rule="evenodd" d="M157.271 43.5969C158.81 44.2908 160.596 44.6378 162.629 44.6378C164.575 44.6378 166.303 44.3052 167.813 43.6401C169.353 42.9751 170.616 42.0353 171.604 40.8204C172.591 39.6059 173.259 38.189 173.608 36.5695H168.031C167.77 37.4372 167.175 38.1746 166.245 38.7817C165.316 39.3603 164.111 39.6495 162.629 39.6495C161.148 39.6495 159.928 39.3312 158.97 38.695C158.011 38.0299 157.299 37.1334 156.835 36.0056C156.526 35.2372 156.32 34.3986 156.216 33.4898H174V31.3208C174 29.2388 173.564 27.3013 172.693 25.5082C171.822 23.6866 170.515 22.2262 168.772 21.1272C167.058 19.9995 164.924 19.4353 162.368 19.4353C160.422 19.4353 158.709 19.7824 157.227 20.4766C155.746 21.1417 154.497 22.0526 153.48 23.2092C152.493 24.3372 151.738 25.6385 151.215 27.1134C150.721 28.5591 150.475 30.063 150.475 31.6246V32.4488C150.475 33.9525 150.721 35.4273 151.215 36.8733C151.738 38.319 152.493 39.6351 153.48 40.8204C154.497 41.9773 155.76 42.9027 157.271 43.5969ZM156.32 29.8027C156.436 29.1401 156.608 28.5327 156.835 27.9808C157.102 27.355 157.433 26.8098 157.828 26.3447C158.162 25.9501 158.543 25.6134 158.97 25.3347C159.899 24.7276 161.032 24.424 162.368 24.424C163.704 24.424 164.807 24.7132 165.679 25.2914C166.579 25.8697 167.247 26.6939 167.683 27.764C167.792 28.0335 167.888 28.3168 167.97 28.614C168.01 28.7578 168.047 28.9046 168.08 29.0549C168.134 29.2959 168.179 29.5452 168.215 29.8027H156.32Z" fill="#383027" fill-opacity="0.87"/>
</svg>
