<svg width="178" height="36" viewBox="0 0 178 36" fill="none" xmlns="http://www.w3.org/2000/svg">
<path d="M57.2503 7.69623C55.1758 6.89835 53.2153 6.49941 51.3688 6.49941C49.5451 6.49941 48.1203 6.88695 47.0944 7.66204C46.0686 8.43712 45.5556 9.50857 45.5556 10.8764C45.5556 12.5405 46.4219 13.8285 48.1545 14.7404C48.9295 15.1279 49.773 15.4927 50.6849 15.8346C51.6196 16.1538 52.5542 16.5185 53.4889 16.9289C54.4235 17.3392 55.2784 17.8066 56.0535 18.3309C56.8286 18.8552 57.4555 19.5847 57.9342 20.5194C58.413 21.4312 58.6523 22.6053 58.6523 24.0415C58.6523 25.4548 58.2534 26.6631 57.4555 27.6661C56.6576 28.6692 55.6888 29.3531 54.5489 29.7178C53.4319 30.0598 52.1211 30.2308 50.6165 30.2308C47.8125 30.2308 45.4189 29.5355 43.4355 28.1449L43.6065 27.8713C44.3588 28.464 45.3277 28.9541 46.5131 29.3417C47.7213 29.7064 48.9523 29.8888 50.2062 29.8888C52.0527 29.8888 53.6257 29.4671 54.9251 28.6236C56.2473 27.7573 56.9084 26.4921 56.9084 24.8279C56.9084 23.0042 56.0421 21.5794 54.3096 20.5536C53.5345 20.0976 52.6796 19.6759 51.7449 19.2883C50.8331 18.9008 49.9098 18.5019 48.9751 18.0915C48.0405 17.6584 47.1856 17.1797 46.4105 16.6553C44.678 15.5155 43.8117 13.8969 43.8117 11.7996C43.8117 10.1355 44.3702 8.79047 45.4872 7.76462C46.6043 6.71597 48.2798 6.19165 50.5139 6.19165C52.7708 6.19165 55.0619 6.57919 57.3871 7.35428L57.2503 7.69623Z" fill="#383027" fill-opacity="0.87"/>
<path d="M73.6861 30.1966C72.7515 30.1966 72.0334 29.9914 71.5318 29.581C71.0531 29.1707 70.8023 28.7604 70.7795 28.35L70.7453 27.7687V17.0315C70.7453 15.2305 70.278 14.0793 69.3434 13.5778C68.8646 13.3498 68.2719 13.2358 67.5652 13.2358C66.1062 13.2358 64.7954 13.8171 63.6328 14.9798C62.4702 16.1196 61.8888 17.1455 61.8888 18.0573V30.1966H59.4952V13.099H61.8888V16.9973C62.2764 16.017 62.9945 15.1052 64.0431 14.2617C65.0918 13.3954 66.243 12.9623 67.4968 12.9623C68.7506 12.9623 69.7651 13.0876 70.5402 13.3384C71.3381 13.5664 71.9194 13.8969 72.2841 14.3301C72.854 15.0368 73.139 15.9486 73.139 17.0657V27.7687C73.139 28.4298 73.2644 28.9427 73.5151 29.3075C73.7887 29.6494 74.0623 29.8318 74.3358 29.8546L74.712 29.923H75.772V30.1966H73.6861Z" fill="#383027" fill-opacity="0.87"/>
<path d="M82.5197 30.3333C80.126 30.3333 78.1769 29.6494 76.6723 28.2816C75.1677 26.9138 74.4154 24.8051 74.4154 21.9556C74.4154 19.106 75.1905 16.8947 76.7407 15.3217C78.3137 13.7488 80.297 12.9623 82.6906 12.9623C85.1071 12.9623 87.0676 13.6462 88.5722 15.014C90.0768 16.3818 90.8291 18.4905 90.8291 21.34C90.8291 24.1896 90.0426 26.4009 88.4696 27.9739C86.9194 29.5469 84.9361 30.3333 82.5197 30.3333ZM82.759 13.2358C81.0265 13.2358 79.5903 14.0109 78.4505 15.5611C77.3106 17.0885 76.7407 19.2314 76.7407 21.9898C76.7407 24.7254 77.265 26.7543 78.3137 28.0765C79.3623 29.3987 80.7529 30.0598 82.4855 30.0598C84.218 30.0598 85.6542 29.2961 86.794 27.7687C87.9339 26.2185 88.5038 24.0756 88.5038 21.34C88.5038 18.5816 87.9795 16.5413 86.9308 15.2191C85.8822 13.8969 84.4916 13.2358 82.759 13.2358Z" fill="#383027" fill-opacity="0.87"/>
<path d="M114.365 13.3042L114.571 13.099C114.662 13.1446 114.776 13.2814 114.913 13.5094C115.072 13.7374 115.163 13.9425 115.186 14.1249C115.232 14.3073 115.254 14.4782 115.254 14.6378C115.254 15.2533 115.118 15.8802 114.844 16.5185L108.621 30.1966H108.279L103.355 16.9631L97.3363 30.1966H96.9943L90.634 13.099H93.0277L98.2595 27.2558L103.184 16.5527L101.918 13.099H104.312L109.544 27.2558L114.502 16.5185C114.776 16.0398 114.913 15.4699 114.913 14.8088C114.913 14.1477 114.73 13.6462 114.365 13.3042Z" fill="#383027" fill-opacity="0.87"/>
<path d="M82.6904 12.6252C85.174 12.6252 87.2208 13.3304 88.7988 14.7649C90.3982 16.2189 91.166 18.4349 91.166 21.3401C91.166 24.2516 90.3603 26.5567 88.709 28.2092L88.71 28.2102C87.0901 29.8539 85.0169 30.6702 82.5195 30.6702C80.0579 30.6701 78.0227 29.9654 76.4453 28.5315C74.8459 27.0774 74.0781 24.8606 74.0781 21.9553C74.0782 19.0441 74.8721 16.738 76.501 15.0852L76.502 15.0833C78.1432 13.442 80.215 12.6253 82.6904 12.6252ZM50.5137 5.85474C52.8098 5.85474 55.1375 6.24886 57.4941 7.03442L57.833 7.14771L57.5635 7.82153L57.4395 8.13013L57.1289 8.01099C55.0856 7.22515 53.1666 6.83623 51.3691 6.83618C49.589 6.83618 48.2451 7.21526 47.2979 7.93091C46.3624 8.63766 45.8926 9.60634 45.8926 10.8762C45.8926 12.3899 46.6656 13.5748 48.3096 14.4407C49.0718 14.8216 49.9032 15.1811 50.8037 15.5188H50.8027C51.7436 15.8404 52.684 16.2077 53.624 16.6204C54.5757 17.0382 55.4488 17.5153 56.2422 18.052C57.0698 18.6119 57.733 19.3866 58.2344 20.3655H58.2334C58.7446 21.3405 58.9892 22.5721 58.9893 24.0413C58.9893 25.5225 58.57 26.8073 57.7197 27.8762C56.8834 28.9276 55.8593 29.6528 54.6514 30.0393L54.6475 30.0403C53.4908 30.3943 52.1451 30.5676 50.6162 30.5676C47.7545 30.5676 45.2907 29.8574 43.2422 28.4211L42.9805 28.2375L43.1494 27.9661L43.3203 27.6926L43.5195 27.3743L43.8154 27.6067C44.5288 28.1687 45.4597 28.642 46.6182 29.0208H46.6172C47.7919 29.3747 48.9878 29.552 50.2061 29.552C52 29.552 53.5063 29.1426 54.7412 28.3411C55.9618 27.541 56.5712 26.3854 56.5713 24.8284C56.5713 23.138 55.7805 21.8168 54.1377 20.844V20.843C53.378 20.3962 52.5376 19.9819 51.6162 19.5999L51.6133 19.5989C50.7003 19.2108 49.7756 18.8114 48.8398 18.4006L48.833 18.3977C47.8837 17.9578 47.0131 17.4701 46.2217 16.9348V16.9338C44.3958 15.731 43.4747 14.0075 43.4746 11.8C43.4746 10.0517 44.065 8.61218 45.2588 7.51587C46.4618 6.38823 48.2346 5.85477 50.5137 5.85474ZM67.4971 12.6252C68.7629 12.6253 69.8121 12.7508 70.6318 13.0139C71.4657 13.2522 72.1182 13.6095 72.542 14.1125L72.5469 14.1184L72.6602 14.2668C73.2113 15.0225 73.4766 15.9632 73.4766 17.0657V27.7688C73.4766 28.3871 73.5933 28.8205 73.7871 29.1077C74.001 29.372 74.1762 29.4794 74.3086 29.51L74.3643 29.5188L74.3799 29.5198L74.3965 29.5227L74.7451 29.5862H76.1094V30.5334H73.6865C72.7076 30.5334 71.9018 30.3194 71.3184 29.842L71.3125 29.8372C70.801 29.3987 70.4737 28.9103 70.4434 28.3694L70.4092 27.7883L70.4082 27.7786V17.0315C70.4082 15.2663 69.9487 14.2868 69.1865 13.8762C68.7673 13.6794 68.2314 13.5725 67.5654 13.5725C66.2075 13.5725 64.9792 14.1099 63.8711 15.218L63.8691 15.2209C62.7247 16.3429 62.2258 17.285 62.2256 18.0569V30.5334H59.1582V12.762H62.2256V15.677C62.6396 15.0854 63.1767 14.5264 63.832 13.9993C64.9347 13.0895 66.1594 12.6252 67.4971 12.6252ZM114.722 12.7971C114.829 12.8508 114.916 12.9385 114.983 13.0198C115.051 13.1014 115.119 13.2019 115.188 13.3157C115.358 13.5585 115.478 13.8073 115.516 14.0559C115.565 14.256 115.592 14.4504 115.592 14.6379C115.592 15.3046 115.444 15.9768 115.154 16.6516L115.151 16.6584L108.928 30.3362L108.838 30.5334H108.044L107.963 30.3137L103.323 17.845L97.6436 30.3362L97.5537 30.5334H96.7598L96.6787 30.3137L90.3184 13.217L90.1484 12.762H93.2627L93.3438 12.9817L98.293 26.3743L102.818 16.5374L101.602 13.2151L101.436 12.762H104.547L104.628 12.9817L109.578 26.3762L114.196 16.3772L114.202 16.3635L114.209 16.3508C114.448 15.9323 114.575 15.4229 114.575 14.8088C114.575 14.2095 114.412 13.8095 114.135 13.55L113.881 13.3118L114.504 12.6887L114.722 12.7971ZM82.7588 13.5725C81.1466 13.5726 79.806 14.2862 78.7217 15.761L78.7207 15.7629C77.64 17.2111 77.0782 19.2727 77.0781 21.9895C77.0781 24.6928 77.5982 26.6319 78.5781 27.8674C79.5608 29.1062 80.8528 29.7229 82.4854 29.7229C84.0998 29.7229 85.4399 29.0186 86.5234 27.5667C87.6051 26.0944 88.167 24.0319 88.167 21.3401C88.167 18.6134 87.6464 16.6641 86.667 15.429C85.6843 14.1899 84.3916 13.5725 82.7588 13.5725Z" stroke="#383027" stroke-opacity="0.87" stroke-width="0.674298"/>
<path d="M119.548 11.4919V13.0991H122.25V13.6516H119.548V30.1966H117.155V13.6516H116.437V13.0991H117.155V11.4919C117.155 9.00705 117.69 7.2403 118.762 6.19166C119.833 5.12021 121.566 4.57309 123.959 4.55029C122.386 4.57309 121.258 5.38237 120.574 6.43102C119.89 7.45687 119.548 9.14383 119.548 11.4919Z" fill="#383027" fill-opacity="0.87"/>
<path d="M127.622 30.1966C125.616 30.1966 124.351 29.6722 123.827 28.6236C123.713 28.3956 123.656 28.1905 123.656 28.0081L123.959 4.55029L126.049 4.58449V27.7687C126.049 28.4298 126.175 28.9427 126.425 29.3075C126.699 29.6494 126.973 29.8318 127.246 29.8546L127.622 29.923H128.682V30.1966H127.622Z" fill="#383027" fill-opacity="0.87"/>
<path d="M143.006 30.1966C141.455 30.1966 140.395 29.9002 139.825 29.3075C139.301 28.806 139.039 28.3728 139.039 28.0081V27.29C137.922 29.3189 136.132 30.3333 133.67 30.3333C130.798 30.3333 129.168 29.0339 128.78 26.4351C128.735 26.1616 128.712 25.888 128.712 25.6144C128.712 25.3181 128.758 24.9989 128.849 24.657C128.94 24.315 129.202 23.9389 129.635 23.5285C130.502 22.7079 132.405 22.2063 135.346 22.024C136.075 21.9556 136.748 21.9214 137.363 21.9214C137.979 21.9214 138.537 21.9442 139.039 21.9898V16.3134C138.993 16.2906 138.993 16.188 139.039 16.0056C139.084 15.8005 139.039 15.5497 138.902 15.2533C138.788 14.9342 138.629 14.6264 138.423 14.3301C138.218 14.0337 137.853 13.783 137.329 13.5778C136.805 13.3498 136.121 13.2358 135.277 13.2358C134.434 13.2358 133.442 13.3954 132.302 13.7146C131.185 14.0109 130.365 14.3073 129.84 14.6036L129.704 14.3643C131.733 13.4296 133.796 12.9623 135.893 12.9623C138.241 12.9623 139.791 13.384 140.543 14.2275C141.136 14.8886 141.433 15.5839 141.433 16.3134V27.7687C141.433 28.4298 141.558 28.9427 141.809 29.3075C142.082 29.6494 142.356 29.8318 142.629 29.8546L143.006 29.923H144.066V30.1966H143.006ZM134.217 30.0598C135.426 30.0598 136.508 29.6494 137.466 28.8288C138.446 27.9853 138.971 27.176 139.039 26.4009V22.2633C138.423 22.2177 137.796 22.1949 137.158 22.1949C136.543 22.1949 135.927 22.2291 135.312 22.2975C133.579 22.5027 132.451 22.8902 131.926 23.4601C131.402 24.0301 131.14 24.8165 131.14 25.8196C131.14 26.002 131.151 26.2071 131.174 26.4351C131.379 28.8516 132.394 30.0598 134.217 30.0598Z" fill="#383027" fill-opacity="0.87"/>
<path d="M146.973 4.55029V21.5794L154.496 13.0991H154.838L149.264 19.3909L156.616 30.1966H154.222L147.896 20.8955L146.973 21.9556V30.1966H144.579V4.55029H146.973Z" fill="#383027" fill-opacity="0.87"/>
<path d="M158.411 21.853C158.411 24.6798 158.901 26.7543 159.881 28.0765C160.884 29.3987 162.195 30.0598 163.813 30.0598C166.093 30.0598 168.122 29.7178 169.9 29.0339L170.003 29.2733C168.179 29.98 166.116 30.3333 163.813 30.3333C161.534 30.3333 159.676 29.6494 158.24 28.2816C156.803 26.9138 156.085 24.8052 156.085 21.9556C156.085 19.106 156.838 16.8947 158.342 15.3217C159.847 13.7488 161.762 12.9623 164.087 12.9623C165.956 12.9623 167.529 13.5208 168.806 14.6378C170.083 15.7549 170.721 17.4076 170.721 19.5961C170.721 19.7101 170.721 19.8241 170.721 19.9381H158.513C158.445 20.5536 158.411 21.1919 158.411 21.853ZM168.396 19.6645C168.373 17.476 167.951 15.8575 167.13 14.8088C166.31 13.7602 165.25 13.2358 163.95 13.2358C162.651 13.2358 161.488 13.8057 160.462 14.9456C159.459 16.0854 158.821 17.6584 158.547 19.6645H168.396Z" fill="#383027" fill-opacity="0.87"/>
<path d="M147.311 4.21338V20.6909L154.243 12.8755L154.345 12.7622H155.587L155.09 13.3228L149.69 19.4185L156.895 30.0073L157.253 30.5337H154.044L153.943 30.3862L147.862 21.4468L147.311 22.0815V30.5337H143.006C141.437 30.5337 140.253 30.239 139.582 29.5415V29.5405C139.169 29.144 138.865 28.742 138.752 28.3413C138.266 28.9758 137.693 29.4873 137.025 29.8657C136.071 30.4069 134.948 30.6704 133.67 30.6704C132.186 30.6704 130.977 30.335 130.083 29.6226C129.185 28.9069 128.65 27.8456 128.447 26.4849V26.4839C128.399 26.1945 128.375 25.9048 128.375 25.6147C128.375 25.284 128.426 24.9348 128.523 24.5698C128.638 24.1393 128.953 23.7107 129.403 23.2837C129.896 22.8169 130.652 22.4673 131.627 22.2104C132.485 21.9844 133.538 21.8243 134.78 21.7261L135.325 21.687C136.059 21.6185 136.739 21.5845 137.363 21.5845C137.842 21.5845 138.288 21.5981 138.702 21.6255V16.4097C138.7 16.4053 138.698 16.4012 138.696 16.397C138.672 16.3301 138.668 16.2653 138.668 16.2192C138.668 16.129 138.686 16.0292 138.71 15.9321C138.733 15.8291 138.717 15.6587 138.596 15.395L138.59 15.3813L138.585 15.3667C138.482 15.0771 138.336 14.7955 138.146 14.522C137.995 14.3037 137.7 14.0855 137.206 13.8921L137.194 13.8872C136.728 13.6844 136.095 13.5728 135.277 13.5728C134.474 13.5728 133.515 13.7257 132.394 14.0396L132.389 14.0405C131.279 14.3349 130.492 14.6223 130.006 14.897L129.714 15.062L129.548 14.771L129.411 14.5317L129.229 14.2124L129.562 14.0581C131.633 13.1045 133.744 12.6255 135.893 12.6255C137.084 12.6255 138.091 12.7322 138.905 12.9536C139.717 13.1746 140.36 13.516 140.794 14.0024H140.795C141.43 14.7111 141.769 15.4835 141.77 16.313V27.769C141.77 28.3874 141.887 28.8208 142.081 29.1079C142.295 29.3723 142.47 29.4798 142.603 29.5103L142.657 29.519L142.674 29.52L142.689 29.5229L143.033 29.5854H144.242V4.21338H147.311ZM164.087 12.6255C166.029 12.6255 167.684 13.2078 169.028 14.3843C170.398 15.5828 171.058 17.3408 171.058 19.5962V20.2749H158.819C158.773 20.7845 158.748 21.3105 158.748 21.853C158.748 24.654 159.236 26.6401 160.152 27.8755H160.151C161.092 29.1144 162.305 29.7222 163.813 29.7222C166.06 29.7222 168.047 29.3857 169.779 28.7192L170.082 28.603L170.21 28.9009L170.45 29.4614L170.125 29.5874C168.256 30.3116 166.15 30.6704 163.813 30.6704C161.461 30.6704 159.515 29.9623 158.007 28.5259C156.479 27.0709 155.748 24.8565 155.748 21.9556C155.748 19.0469 156.517 16.7416 158.099 15.0884C159.671 13.4441 161.677 12.6255 164.087 12.6255ZM137.158 22.5317C136.556 22.5317 135.953 22.5645 135.351 22.6313C134.499 22.7323 133.809 22.8778 133.275 23.061C132.738 23.2455 132.384 23.4609 132.175 23.688C131.723 24.179 131.477 24.8756 131.477 25.8198C131.477 25.9041 131.48 25.9945 131.485 26.0913L131.51 26.4019V26.4067C131.609 27.5804 131.902 28.4078 132.347 28.937C132.779 29.4525 133.388 29.7222 134.218 29.7222C135.342 29.7221 136.347 29.3433 137.246 28.5728L137.58 28.269C138.303 27.5714 138.65 26.9403 138.702 26.3774V22.5786C138.196 22.5477 137.681 22.5317 137.158 22.5317ZM163.95 13.5728C162.765 13.5728 161.689 14.0867 160.715 15.1675C159.831 16.1724 159.233 17.5516 158.939 19.3276H168.051C167.99 17.3481 167.579 15.9279 166.865 15.0161C166.107 14.0468 165.143 13.5728 163.95 13.5728ZM126.387 27.769C126.387 28.3873 126.503 28.8208 126.697 29.1079C126.912 29.3728 127.087 29.4799 127.22 29.5103L127.274 29.519L127.29 29.52L127.307 29.5229L127.65 29.5854H129.02V30.5337H127.622C125.584 30.5337 124.14 30.0025 123.525 28.7739C123.397 28.5168 123.318 28.2594 123.318 28.0083V28.0034L123.617 4.90869C122.354 5.03286 121.437 5.72495 120.856 6.61475L120.854 6.61768C120.228 7.55713 119.886 9.15936 119.886 11.4917V12.7622H122.587V13.9888H119.886V30.5337H116.817V13.9888H116.1V12.7622H116.817V11.4917C116.817 8.97297 117.359 7.09367 118.526 5.95068C119.635 4.84395 121.359 4.29084 123.626 4.22217L123.627 4.20752L123.965 4.21338L126.055 4.24756L126.387 4.25244V27.769Z" stroke="#383027" stroke-opacity="0.87" stroke-width="0.674298"/>
<path d="M173.876 4.19123V5.09461H172.849V7.84311H171.874V5.09461H170.847V4.19123H173.876Z" fill="#383027" fill-opacity="0.87"/>
<path d="M177.879 4.13647V7.85953H176.904V6.05275L176.19 6.90139H175.898L175.184 6.05275V7.85953H174.209V4.13647H174.553L176.044 5.72425L177.535 4.13647H177.879Z" fill="#383027" fill-opacity="0.87"/>
<path fill-rule="evenodd" clip-rule="evenodd" d="M16.7461 24.2483L16.7312 35.9895L19.2132 35.9927L19.2282 24.1967L23.7559 35.0891L26.0478 34.1364L21.5512 23.3188L29.8244 31.613L31.5817 29.8602L23.273 21.5304L34.1394 26.0401L35.0908 23.7476L24.223 19.2373H35.9896V16.7553H24.2512L35.1008 12.2744L34.1533 9.98028L23.35 14.4421L31.6573 6.21976L29.9113 4.45569L21.501 12.78L26.0331 1.84892L23.7403 0.898302L19.2439 11.7431L19.2588 0.00314558L16.7768 0L16.7618 11.7971L12.2337 0.903612L9.94174 1.85631L14.438 12.6729L6.16551 4.37944L4.40821 6.13227L12.717 14.4622L1.85022 9.95231L0.898815 12.2448L11.7672 16.7553H0V19.2373H11.7393L0.889091 23.7185L1.83655 26.0125L12.6394 21.551L4.33236 29.773L6.07838 31.5371L14.4883 23.2132L9.95639 34.1436L12.2492 35.0942L16.7461 24.2483Z" fill="#383027" fill-opacity="0.87"/>
</svg>
