<svg width="163" height="50" viewBox="0 0 163 50" fill="none" xmlns="http://www.w3.org/2000/svg">
<path d="M97.2626 45.1453C97.2626 45.6943 97.722 46.1319 98.271 46.1057L106.413 45.7169C106.926 45.6924 107.329 45.2697 107.329 44.7565V19.0514C107.329 18.5053 106.875 18.0688 106.329 18.0906L98.1866 18.416C97.6704 18.4366 97.2626 18.8607 97.2626 19.3768V45.1453Z" fill="#383027" fill-opacity="0.87"/>
<path d="M98.5282 13.2806C99.5253 14.2767 100.772 14.7748 102.267 14.7748C103.84 14.7748 105.105 14.2767 106.064 13.2806C107.061 12.2461 107.56 10.9626 107.56 9.43001C107.56 7.93577 107.061 6.67141 106.064 5.63694C105.105 4.60247 103.84 4.08523 102.267 4.08523C100.772 4.08523 99.5253 4.60247 98.5282 5.63694C97.5311 6.67141 97.0325 7.93577 97.0325 9.43001C97.0325 10.9626 97.5311 12.2461 98.5282 13.2806Z" fill="#383027" fill-opacity="0.87"/>
<path fill-rule="evenodd" clip-rule="evenodd" d="M73.0398 29.6597V43.6313C73.0398 44.0942 72.7097 44.4914 72.2542 44.5764L63.8822 46.14C63.29 46.2506 62.7429 45.7967 62.7429 45.1949V6.36859C62.7429 5.83755 63.1738 5.40706 63.7053 5.40706H80.1153C82.8765 5.40706 85.2925 5.92429 87.3634 6.95877C89.4727 7.99324 91.1217 9.41086 92.3106 11.2116C93.4994 13.0124 94.0938 15.1196 94.0938 17.5334C94.0938 19.9472 93.4802 22.0736 92.253 23.9126C91.0642 25.7134 89.396 27.131 87.2484 28.1655C86.3193 28.5964 85.3221 28.9342 84.2567 29.1787L95.1771 44.0286C95.7088 44.7516 95.0474 45.7438 94.1747 45.5324L85.1481 43.3457C84.9433 43.2961 84.7604 43.1807 84.6276 43.0172L73.776 29.6597H73.0398ZM73.0398 22.3035H78.6772C80.3646 22.3035 81.6493 21.9012 82.5314 21.0966C83.4518 20.2537 83.912 19.1234 83.912 17.7058C83.912 16.3265 83.4518 15.2154 82.5314 14.3725C81.6493 13.4913 80.3646 13.0507 78.6772 13.0507H73.0398V22.3035Z" fill="#383027" fill-opacity="0.87"/>
<path d="M120.985 46.9584C119.259 46.9584 117.553 46.7285 115.866 46.2688C114.217 45.809 112.663 45.196 111.206 44.4297C110.092 43.7977 109.107 43.0948 108.253 42.321C107.867 41.9717 107.872 41.3756 108.236 41.004L112.352 36.8049C112.732 36.4172 113.355 36.4246 113.77 36.7755C114.525 37.4148 115.377 37.9356 116.326 38.3378C117.63 38.8742 119.01 39.1424 120.468 39.1424C121.311 39.1424 121.944 39.0275 122.366 38.7976C122.826 38.5677 123.056 38.242 123.056 37.8206C123.056 37.2076 122.73 36.7478 122.078 36.4413C121.465 36.0965 120.64 35.8091 119.605 35.5792C118.608 35.311 117.553 35.0045 116.441 34.6597C115.329 34.2765 114.255 33.7785 113.219 33.1654C112.184 32.5524 111.34 31.6904 110.688 30.5793C110.075 29.4682 109.768 28.0505 109.768 26.3264C109.768 24.5257 110.247 22.9548 111.206 21.6138C112.203 20.2345 113.584 19.1617 115.348 18.3955C117.112 17.5909 119.183 17.1886 121.56 17.1886C123.977 17.1886 126.278 17.61 128.463 18.4529C130.323 19.1372 132.19 20.4629 133.533 21.8575C133.908 22.2477 133.834 22.8688 133.405 23.1989L128.644 26.8579C128.243 27.1655 127.68 27.1031 127.305 26.7656C126.651 26.1777 126.033 25.8715 125.185 25.5793C124.072 25.1578 123.056 24.9471 122.136 24.9471C121.254 24.9471 120.621 25.0812 120.237 25.3494C119.854 25.5793 119.662 25.905 119.662 26.3264C119.662 26.8245 119.969 27.2268 120.583 27.5333C121.235 27.8398 122.059 28.1272 123.056 28.3954C124.092 28.6253 125.146 28.9318 126.22 29.3149C127.332 29.698 128.387 30.2344 129.384 30.9241C130.419 31.5754 131.244 32.4566 131.857 33.5677C132.509 34.6788 132.835 36.1156 132.835 37.8781C132.835 40.675 131.762 42.8972 129.614 44.5447C127.466 46.1538 124.59 46.9584 120.985 46.9584Z" fill="#383027" fill-opacity="0.87"/>
<path fill-rule="evenodd" clip-rule="evenodd" d="M140.354 44.947C142.77 46.173 145.55 46.786 148.695 46.786C151.188 46.786 153.412 46.3837 155.368 45.5791C157.074 44.8908 158.556 43.9219 159.813 42.6727C160.172 42.3152 160.151 41.7372 159.792 41.3787L155.921 37.5108C155.528 37.1183 154.888 37.1438 154.477 37.5167C153.818 38.1133 153.099 38.5786 152.319 38.9125C151.284 39.3723 150.076 39.6022 148.695 39.6022C147.238 39.6022 146.011 39.3148 145.013 38.7401C144.016 38.1654 143.249 37.3225 142.712 36.2114C142.581 35.93 142.466 35.6348 142.366 35.3259L161.35 35.2379C161.79 35.2358 162.177 34.9366 162.263 34.5056C162.358 34.0352 162.418 33.6076 162.443 33.2229C162.52 32.6099 162.558 32.016 162.558 31.4413C162.558 28.721 161.926 26.3073 160.66 24.2C159.433 22.0544 157.707 20.3878 155.483 19.2C153.297 17.974 150.785 17.361 147.947 17.361C145.033 17.361 142.406 18.0123 140.066 19.315C137.765 20.5793 135.944 22.3226 134.602 24.5448C133.259 26.7287 132.588 29.2383 132.588 32.0735C132.588 34.947 133.278 37.4949 134.659 39.7171C136.04 41.9393 137.938 43.6826 140.354 44.947ZM142.345 28.8709C142.435 28.5848 142.538 28.3113 142.655 28.0505C143.154 26.9394 143.863 26.0774 144.783 25.4644C145.704 24.8513 146.797 24.5448 148.062 24.5448C149.289 24.5448 150.306 24.813 151.111 25.3494C151.916 25.8858 152.53 26.6712 152.952 27.7057C153.09 28.0329 153.208 28.391 153.305 28.7801L142.345 28.8709Z" fill="#383027" fill-opacity="0.87"/>
<path d="M150.688 13.3696V5.95203H152.576V13.3696H150.688ZM148.4 7.52195V5.89935H154.865V7.52195H148.4Z" fill="#383027" fill-opacity="0.87"/>
<path d="M155.196 13.3696V5.89935H156.556L159.425 10.2298H158.782L161.64 5.89935H163V13.3696H161.133V9.0181L161.429 9.10239L159.71 11.6838H158.486L156.778 9.10239L157.073 9.0181V13.3696H155.196Z" fill="#383027" fill-opacity="0.87"/>
<path d="M13.5827 1.97913C13.5827 1.40882 14.0078 0.927763 14.5742 0.857025L21.3656 0.00889905C22.0412 -0.0754687 22.6379 0.450806 22.6379 1.131V23.4474C22.6379 24.1276 22.0412 24.6539 21.3656 24.5695L14.5742 23.7214C14.0078 23.6506 13.5827 23.1696 13.5827 22.5993V1.97913Z" fill="#383027" fill-opacity="0.87"/>
<path d="M0 4.80621C0 4.23591 0.425068 3.75485 0.9915 3.68411L7.78287 2.83599C8.45844 2.75162 9.05516 3.27789 9.05516 3.95809V21.7511C9.05516 22.4313 8.45844 22.9576 7.78287 22.8732L0.9915 22.0251C0.425067 21.9544 0 21.4733 0 20.903V4.80621Z" fill="#383027" fill-opacity="0.87"/>
<path d="M35.3633 1.89754C35.8671 2.02339 36.2206 2.47571 36.2206 2.99461V12.4217C36.2206 12.9921 35.7956 13.4731 35.2291 13.5438L28.4378 14.392C27.7622 14.4763 27.1655 13.9501 27.1655 13.2699V1.29836C27.1655 0.56267 27.8575 0.0228567 28.5719 0.201287L35.3633 1.89754Z" fill="#383027" fill-opacity="0.87"/>
<path d="M48.6715 5.8217C48.6715 5.30279 48.318 4.85048 47.8141 4.72463L41.0227 3.02837C40.3083 2.84994 39.6163 3.38976 39.6163 4.12544V12.7045C39.6163 13.3847 40.213 13.9109 40.8886 13.8266L47.68 12.9784C48.2464 12.9077 48.6715 12.4266 48.6715 11.8563V5.8217Z" fill="#383027" fill-opacity="0.87"/>
<path d="M48.6715 17.3779L26.5995 17.9434C26.9189 22.091 30.3807 25.2938 34.5445 25.2938H39.6163V30.1064L0 26.4246V50L48.6715 46.6075V17.3779Z" fill="#383027" fill-opacity="0.87"/>
</svg>
