<svg width="195" height="51" viewBox="0 0 195 51" fill="none" xmlns="http://www.w3.org/2000/svg">
<path d="M103.607 24.8051C102.385 25.984 101.773 27.702 101.773 29.9588V44.0557H93.6226V16.3672H100.092V25.5044C100.402 22.8963 101.183 20.7937 102.436 19.1966C104.134 17.0745 106.579 16.0135 109.771 16.0135H110.841V22.9861H108.803C106.562 22.9861 104.83 23.5925 103.607 24.8051Z" fill="#383027" fill-opacity="0.87"/>
<path fill-rule="evenodd" clip-rule="evenodd" d="M128.313 40.6704C128.664 40.0817 128.952 39.4321 129.179 38.7216V44.0557H135.649V27.0788C135.649 24.5188 135.14 22.4303 134.121 20.8135C133.102 19.163 131.608 17.9335 129.638 17.125C127.702 16.3166 125.308 15.9124 122.455 15.9124C121.47 15.9124 120.418 15.9293 119.297 15.9629C118.176 15.9966 117.089 16.0472 116.037 16.1145C114.984 16.1819 114.067 16.2493 113.286 16.3166V23.1377C114.338 23.0703 115.51 23.003 116.801 22.9356C118.091 22.8682 119.348 22.8177 120.57 22.784C121.793 22.7503 122.778 22.7335 123.525 22.7335C125.019 22.7335 126.106 23.0872 126.785 23.7946C127.464 24.5019 127.804 25.563 127.804 26.9777V27.0788H122.761C120.282 27.0788 118.091 27.3988 116.189 28.0388C114.288 28.6451 112.81 29.6051 111.757 30.9188C110.705 32.1988 110.178 33.8494 110.178 35.8704C110.178 37.7231 110.603 39.3231 111.452 40.6704C112.301 41.9841 113.472 42.9947 114.967 43.702C116.495 44.4094 118.261 44.7631 120.265 44.7631C122.2 44.7631 123.831 44.4094 125.155 43.702C126.514 42.9947 127.566 41.9841 128.313 40.6704ZM126.989 37.0325C127.464 36.2578 127.736 35.1799 127.804 33.7988V31.5757H122.71C121.284 31.5757 120.18 31.9293 119.399 32.6367C118.652 33.3104 118.278 34.2367 118.278 35.4157C118.278 36.5273 118.652 37.4367 119.399 38.1441C120.18 38.8178 121.284 39.1546 122.71 39.1546C123.627 39.1546 124.442 39.0031 125.155 38.6999C125.902 38.3631 126.514 37.8073 126.989 37.0325Z" fill="#383027" fill-opacity="0.87"/>
<path d="M152.549 45.0157C150.138 45.0157 148.032 44.6284 146.232 43.8536C144.466 43.0452 142.989 41.9673 141.8 40.6199C140.612 39.2725 139.729 37.7567 139.151 36.0725C138.574 34.3546 138.285 32.5862 138.285 30.7672V29.8072C138.285 27.9209 138.591 26.1188 139.202 24.4009C139.814 22.6493 140.714 21.0998 141.902 19.7524C143.091 18.4051 144.568 17.344 146.334 16.5693C148.134 15.7945 150.189 15.4071 152.498 15.4071C155.011 15.4071 157.236 15.8956 159.171 16.8724C161.107 17.8156 162.652 19.1461 163.807 20.864C164.962 22.5819 165.607 24.5525 165.743 26.7756H157.745C157.609 25.5293 157.1 24.4851 156.217 23.643C155.368 22.7672 154.128 22.3293 152.498 22.3293C151.14 22.3293 150.002 22.6661 149.085 23.3398C148.202 24.0135 147.54 24.9398 147.098 26.1188C146.657 27.2977 146.436 28.6956 146.436 30.3125C146.436 31.7946 146.64 33.142 147.047 34.3546C147.455 35.5336 148.1 36.4599 148.983 37.1336C149.9 37.7736 151.089 38.0936 152.549 38.0936C153.636 38.0936 154.553 37.9083 155.3 37.5378C156.081 37.1336 156.692 36.5946 157.134 35.9209C157.609 35.2136 157.898 34.4051 158 33.4957H165.947C165.845 35.7862 165.199 37.8073 164.011 39.5589C162.822 41.2768 161.243 42.6241 159.273 43.601C157.303 44.5441 155.062 45.0157 152.549 45.0157Z" fill="#383027" fill-opacity="0.87"/>
<path fill-rule="evenodd" clip-rule="evenodd" d="M175.082 43.8031C176.916 44.6115 179.021 45.0157 181.399 45.0157C183.742 45.0157 185.814 44.6115 187.613 43.8031C189.413 42.9947 190.908 41.8662 192.096 40.4178C193.285 38.9694 194.083 37.3188 194.491 35.4662H187.002C186.663 36.3083 186.017 37.0157 185.066 37.5883C184.115 38.161 182.893 38.4473 181.399 38.4473C179.768 38.4473 178.444 38.1104 177.425 37.4367C176.406 36.7631 175.659 35.8199 175.184 34.6073C174.919 33.9122 174.727 33.1543 174.61 32.3336H195V29.6051C195 27.0788 194.457 24.7546 193.37 22.6325C192.283 20.4766 190.704 18.7419 188.632 17.4282C186.595 16.0808 184.082 15.4071 181.093 15.4071C178.818 15.4071 176.78 15.8114 174.98 16.6198C173.214 17.3945 171.737 18.4556 170.548 19.803C169.359 21.1503 168.442 22.683 167.797 24.4009C167.186 26.0851 166.88 27.8535 166.88 29.7062V30.7167C166.88 32.502 167.186 34.2536 167.797 35.9715C168.442 37.6557 169.359 39.1883 170.548 40.5694C171.771 41.9168 173.282 42.9947 175.082 43.8031ZM174.672 27.7356C174.8 27.0112 174.987 26.3543 175.235 25.7651C175.744 24.5188 176.491 23.5756 177.476 22.9356C178.461 22.2956 179.667 21.9756 181.093 21.9756C182.485 21.9756 183.64 22.2956 184.557 22.9356C185.508 23.5419 186.221 24.4346 186.697 25.6135C186.954 26.2518 187.142 26.9592 187.26 27.7356H174.672Z" fill="#383027" fill-opacity="0.87"/>
<path d="M74.2158 44.0557V14.3966H63.7728V7.17131H93.0642V14.3966H82.5703V44.0557H74.2158Z" fill="#383027" fill-opacity="0.87"/>
<path fill-rule="evenodd" clip-rule="evenodd" d="M25.7095 4.63636C14.0921 4.63636 4.67445 13.9773 4.67445 25.5C4.67445 37.0227 14.0921 46.3636 25.7095 46.3636C37.3268 46.3636 46.7445 37.0227 46.7445 25.5C46.7445 13.9773 37.3268 4.63636 25.7095 4.63636ZM0 25.5C0 11.4167 11.5105 0 25.7095 0C39.9084 0 51.4189 11.4167 51.4189 25.5C51.4189 39.5833 39.9084 51 25.7095 51C11.5105 51 0 39.5833 0 25.5Z" fill="#383027" fill-opacity="0.87"/>
<path fill-rule="evenodd" clip-rule="evenodd" d="M38.5352 16.8547C39.2204 14.7141 37.1736 12.7035 35.0221 13.4038L20.3667 18.1734C19.5183 18.4495 18.8556 19.1132 18.5854 19.9573L14.0443 34.1452C13.3591 36.2859 15.4059 38.2964 17.5574 37.5962L32.2128 32.8266C33.0612 32.5505 33.724 31.8867 33.9941 31.0427L38.5352 16.8547ZM26.287 28.8116C28.131 28.8116 29.6259 27.3289 29.6259 25.4999C29.6259 23.671 28.131 22.1883 26.287 22.1883C24.443 22.1883 22.9482 23.671 22.9482 25.4999C22.9482 27.3289 24.443 28.8116 26.287 28.8116Z" fill="#383027" fill-opacity="0.87"/>
</svg>
