<svg width="16" height="16" viewBox="0 0 16 16" fill="none" xmlns="http://www.w3.org/2000/svg">
<path d="M12.2356 2.85693C11.7177 2.85693 11.2979 3.27679 11.2979 3.7947C11.2979 4.31261 11.7177 4.73292 12.2356 4.73292C12.7535 4.73292 13.1738 4.31306 13.1738 3.7947C13.1738 3.27634 12.754 2.85693 12.2356 2.85693Z" fill="#6BD425" fill-opacity="0.5"/>
<path d="M8.06549 4.05994C5.89267 4.05994 4.125 5.82761 4.125 7.99999C4.125 10.1724 5.89267 11.94 8.06549 11.94C10.2383 11.94 12.0056 10.1724 12.0056 7.99999C12.0056 5.82761 10.2379 4.05994 8.06549 4.05994ZM8.06549 10.524C6.67355 10.524 5.54146 9.39193 5.54146 7.99999C5.54146 6.60804 6.67355 5.47595 8.06549 5.47595C9.45744 5.47595 10.5895 6.60804 10.5895 7.99999C10.5895 9.39193 9.45744 10.524 8.06549 10.524Z" fill="#6BD425" fill-opacity="0.5"/>
<path d="M11.1935 16H4.80562C2.15544 16 0 13.8441 0 11.1944V4.80606C0 2.15589 2.15589 0 4.80562 0H11.1935C13.8432 0 15.9996 2.15589 15.9996 4.80606V11.1939C15.9996 13.8437 13.8432 15.9996 11.1935 15.9996V16ZM4.80562 1.5056C2.98535 1.5056 1.50515 2.98624 1.50515 4.80606V11.1939C1.50515 13.0142 2.9858 14.4944 4.80562 14.4944H11.1935C13.0138 14.4944 14.4944 13.0138 14.4944 11.1939V4.80606C14.4944 2.98579 13.0138 1.5056 11.1935 1.5056H4.80562Z" fill="#6BD425" fill-opacity="0.5"/>
</svg>
