<svg width="17" height="16" viewBox="0 0 17 16" fill="none" xmlns="http://www.w3.org/2000/svg">
<path d="M0.264281 5.31145H3.59165V15.9994H0.264281V5.31145ZM1.92853 0C2.99239 0 3.85481 0.862986 3.85481 1.9246C3.85481 2.98622 2.99239 3.85257 1.92853 3.85257C0.864666 3.85257 0 2.9879 0 1.9246C0 0.861303 0.861861 0 1.92853 0Z" fill="#6BD425" fill-opacity="0.5"/>
<path d="M5.67627 5.31147H8.8628V6.77371H8.90657C9.35096 5.93261 10.4345 5.04718 12.0527 5.04718C15.416 5.04718 16.0366 7.25907 16.0366 10.1381V16H12.7165V10.8036C12.7165 9.56298 12.6924 7.96943 10.99 7.96943C9.28756 7.96943 8.9969 9.31946 8.9969 10.7132V16H5.67627V5.31203V5.31147Z" fill="#6BD425" fill-opacity="0.5"/>
</svg>
